<svg xmlns="http://www.w3.org/2000/svg" width="480" height="150" viewBox="0 0 480 150" preserveAspectRatio="xMidYMid slice"><defs></defs><rect width="480" height="150" fill="#1C1009"/><linearGradient id="p3_0" x1="0" y1="0" x2="0" y2="1"><stop offset="0" stop-color="#5C4430"/><stop offset="0.5" stop-color="#4E3826"/><stop offset="1" stop-color="#150B05"/></linearGradient><rect x="0" y="0" width="480" height="74" fill="url(#p3_0)"/><path d="M0.0 4.6 L10.0 4.6 L20.0 4.5 L30.0 4.3 L40.0 4.0 L50.0 3.6 L60.0 3.2 L70.0 2.8 L80.0 2.4 L90.0 2.0 L100.0 1.7 L110.0 1.5 L120.0 1.4 L130.0 1.4 L140.0 1.5 L150.0 1.7 L160.0 2.0 L170.0 2.4 L180.0 2.8 L190.0 3.2 L200.0 3.6 L210.0 4.0 L220.0 4.3 L230.0 4.5 L240.0 4.6 L250.0 4.6 L260.0 4.5 L270.0 4.3 L280.0 4.0 L290.0 3.6 L300.0 3.2 L310.0 2.8 L320.0 2.4 L330.0 2.0 L340.0 1.7 L350.0 1.5 L360.0 1.4 L370.0 1.4 L380.0 1.5 L390.0 1.7 L400.0 2.0 L410.0 2.4 L420.0 2.8 L430.0 3.2 L440.0 3.6 L450.0 4.0 L460.0 4.3 L470.0 4.5 L480.0 4.6" fill="none" stroke="#FFF6E8" stroke-width="1.4" stroke-opacity="0.16" stroke-linecap="round"/><path d="M0.0 70.8 L10.0 70.4 L20.0 70.0 L30.0 69.7 L40.0 69.5 L50.0 69.4 L60.0 69.4 L70.0 69.5 L80.0 69.7 L90.0 70.0 L100.0 70.4 L110.0 70.8 L120.0 71.2 L130.0 71.6 L140.0 72.0 L150.0 72.3 L160.0 72.5 L170.0 72.6 L180.0 72.6 L190.0 72.5 L200.0 72.3 L210.0 72.0 L220.0 71.6 L230.0 71.2 L240.0 70.8 L250.0 70.4 L260.0 70.0 L270.0 69.7 L280.0 69.5 L290.0 69.4 L300.0 69.4 L310.0 69.5 L320.0 69.7 L330.0 70.0 L340.0 70.4 L350.0 70.8 L360.0 71.2 L370.0 71.6 L380.0 72.0 L390.0 72.3 L400.0 72.5 L410.0 72.6 L420.0 72.6 L430.0 72.5 L440.0 72.3 L450.0 72.0 L460.0 71.6 L470.0 71.2 L480.0 70.8" fill="none" stroke="#0E0805" stroke-width="2.0" stroke-opacity="0.50" stroke-linecap="round"/><path d="M0.0 13.0 L10.0 13.8 L20.0 14.6 L30.0 15.3 L40.0 15.8 L50.0 16.1 L60.0 16.3 L70.0 16.1 L80.0 15.8 L90.0 15.3 L100.0 14.6 L110.0 13.8 L120.0 13.0 L130.0 12.2 L140.0 11.4 L150.0 10.7 L160.0 10.2 L170.0 9.9 L180.0 9.7 L190.0 9.9 L200.0 10.2 L210.0 10.7 L220.0 11.4 L230.0 12.2 L240.0 13.0 L250.0 13.8 L260.0 14.6 L270.0 15.3 L280.0 15.8 L290.0 16.1 L300.0 16.3 L310.0 16.1 L320.0 15.8 L330.0 15.3 L340.0 14.6 L350.0 13.8 L360.0 13.0 L370.0 12.2 L380.0 11.4 L390.0 10.7 L400.0 10.2 L410.0 9.9 L420.0 9.7 L430.0 9.9 L440.0 10.2 L450.0 10.7 L460.0 11.4 L470.0 12.2 L480.0 13.0" fill="none" stroke="#0E0805" stroke-width="1.1" stroke-opacity="0.35" stroke-linecap="round"/><path d="M0.0 27.2 L10.0 28.2 L20.0 29.0 L30.0 29.7 L40.0 30.0 L50.0 30.1 L60.0 29.9 L70.0 29.5 L80.0 28.8 L90.0 27.9 L100.0 26.9 L110.0 25.8 L120.0 24.8 L130.0 23.8 L140.0 23.0 L150.0 22.3 L160.0 22.0 L170.0 21.9 L180.0 22.1 L190.0 22.5 L200.0 23.2 L210.0 24.1 L220.0 25.1 L230.0 26.2 L240.0 27.2 L250.0 28.2 L260.0 29.0 L270.0 29.7 L280.0 30.0 L290.0 30.1 L300.0 29.9 L310.0 29.5 L320.0 28.8 L330.0 27.9 L340.0 26.9 L350.0 25.8 L360.0 24.8 L370.0 23.8 L380.0 23.0 L390.0 22.3 L400.0 22.0 L410.0 21.9 L420.0 22.1 L430.0 22.5 L440.0 23.2 L450.0 24.1 L460.0 25.1 L470.0 26.2 L480.0 27.2" fill="none" stroke="#0E0805" stroke-width="1.6" stroke-opacity="0.50" stroke-linecap="round"/><path d="M0.0 41.3 L10.0 42.1 L20.0 42.7 L30.0 43.0 L40.0 43.0 L50.0 42.8 L60.0 42.4 L70.0 41.6 L80.0 40.8 L90.0 39.7 L100.0 38.7 L110.0 37.7 L120.0 36.7 L130.0 35.9 L140.0 35.3 L150.0 35.0 L160.0 35.0 L170.0 35.2 L180.0 35.6 L190.0 36.4 L200.0 37.2 L210.0 38.3 L220.0 39.3 L230.0 40.3 L240.0 41.3 L250.0 42.1 L260.0 42.7 L270.0 43.0 L280.0 43.0 L290.0 42.8 L300.0 42.4 L310.0 41.6 L320.0 40.8 L330.0 39.7 L340.0 38.7 L350.0 37.7 L360.0 36.7 L370.0 35.9 L380.0 35.3 L390.0 35.0 L400.0 35.0 L410.0 35.2 L420.0 35.6 L430.0 36.4 L440.0 37.2 L450.0 38.3 L460.0 39.3 L470.0 40.3 L480.0 41.3" fill="none" stroke="#0E0805" stroke-width="1.1" stroke-opacity="0.35" stroke-linecap="round"/><path d="M0.0 54.3 L10.0 54.6 L20.0 54.9 L30.0 54.9 L40.0 54.7 L50.0 54.3 L60.0 53.8 L70.0 53.1 L80.0 52.4 L90.0 51.7 L100.0 50.9 L110.0 50.3 L120.0 49.7 L130.0 49.4 L140.0 49.1 L150.0 49.1 L160.0 49.3 L170.0 49.7 L180.0 50.2 L190.0 50.9 L200.0 51.6 L210.0 52.3 L220.0 53.1 L230.0 53.7 L240.0 54.3 L250.0 54.6 L260.0 54.9 L270.0 54.9 L280.0 54.7 L290.0 54.3 L300.0 53.8 L310.0 53.1 L320.0 52.4 L330.0 51.7 L340.0 50.9 L350.0 50.3 L360.0 49.7 L370.0 49.4 L380.0 49.1 L390.0 49.1 L400.0 49.3 L410.0 49.7 L420.0 50.2 L430.0 50.9 L440.0 51.6 L450.0 52.3 L460.0 53.1 L470.0 53.7 L480.0 54.3" fill="none" stroke="#C98A4E" stroke-width="1.2" stroke-opacity="0.34" stroke-linecap="round"/><path d="M0.0 67.5 L10.0 67.6 L20.0 67.6 L30.0 67.4 L40.0 67.1 L50.0 66.6 L60.0 66.0 L70.0 65.3 L80.0 64.6 L90.0 63.9 L100.0 63.3 L110.0 62.9 L120.0 62.5 L130.0 62.4 L140.0 62.4 L150.0 62.6 L160.0 62.9 L170.0 63.4 L180.0 64.0 L190.0 64.7 L200.0 65.4 L210.0 66.1 L220.0 66.7 L230.0 67.1 L240.0 67.5 L250.0 67.6 L260.0 67.6 L270.0 67.4 L280.0 67.1 L290.0 66.6 L300.0 66.0 L310.0 65.3 L320.0 64.6 L330.0 63.9 L340.0 63.3 L350.0 62.9 L360.0 62.5 L370.0 62.4 L380.0 62.4 L390.0 62.6 L400.0 62.9 L410.0 63.4 L420.0 64.0 L430.0 64.7 L440.0 65.4 L450.0 66.1 L460.0 66.7 L470.0 67.1 L480.0 67.5" fill="none" stroke="#0E0805" stroke-width="1.1" stroke-opacity="0.35" stroke-linecap="round"/><rect x="0" y="72.5" width="480" height="2" fill="#150B05" fill-opacity="0.85"/><path d="M0 75 L480 75" fill="none" stroke="#FFF6E8" stroke-width="1.0" stroke-opacity="0.08" stroke-linecap="round"/><linearGradient id="p3_1" x1="0" y1="0" x2="0" y2="1"><stop offset="0" stop-color="#150B05"/><stop offset="0.5" stop-color="#1C1009"/><stop offset="1" stop-color="#100804"/></linearGradient><rect x="0" y="74" width="480" height="74" fill="url(#p3_1)"/><path d="M0.0 87.0 L10.0 88.0 L20.0 88.9 L30.0 89.7 L40.0 90.3 L50.0 90.7 L60.0 90.8 L70.0 90.7 L80.0 90.3 L90.0 89.7 L100.0 88.9 L110.0 88.0 L120.0 87.0 L130.0 86.0 L140.0 85.1 L150.0 84.3 L160.0 83.7 L170.0 83.3 L180.0 83.2 L190.0 83.3 L200.0 83.7 L210.0 84.3 L220.0 85.1 L230.0 86.0 L240.0 87.0 L250.0 88.0 L260.0 88.9 L270.0 89.7 L280.0 90.3 L290.0 90.7 L300.0 90.8 L310.0 90.7 L320.0 90.3 L330.0 89.7 L340.0 88.9 L350.0 88.0 L360.0 87.0 L370.0 86.0 L380.0 85.1 L390.0 84.3 L400.0 83.7 L410.0 83.3 L420.0 83.2 L430.0 83.3 L440.0 83.7 L450.0 84.3 L460.0 85.1 L470.0 86.0 L480.0 87.0" fill="none" stroke="#0E0805" stroke-width="1.0" stroke-opacity="0.40" stroke-linecap="round"/><path d="M0.0 101.0 L10.0 101.8 L20.0 102.5 L30.0 103.0 L40.0 103.3 L50.0 103.3 L60.0 103.2 L70.0 102.8 L80.0 102.3 L90.0 101.6 L100.0 100.7 L110.0 99.9 L120.0 99.0 L130.0 98.2 L140.0 97.5 L150.0 97.0 L160.0 96.7 L170.0 96.7 L180.0 96.8 L190.0 97.2 L200.0 97.7 L210.0 98.4 L220.0 99.3 L230.0 100.1 L240.0 101.0 L250.0 101.8 L260.0 102.5 L270.0 103.0 L280.0 103.3 L290.0 103.3 L300.0 103.2 L310.0 102.8 L320.0 102.3 L330.0 101.6 L340.0 100.7 L350.0 99.9 L360.0 99.0 L370.0 98.2 L380.0 97.5 L390.0 97.0 L400.0 96.7 L410.0 96.7 L420.0 96.8 L430.0 97.2 L440.0 97.7 L450.0 98.4 L460.0 99.3 L470.0 100.1 L480.0 101.0" fill="none" stroke="#3E2C20" stroke-width="1.2" stroke-opacity="0.40" stroke-linecap="round"/><path d="M0.0 114.6 L10.0 115.1 L20.0 115.5 L30.0 115.7 L40.0 115.8 L50.0 115.6 L60.0 115.3 L70.0 114.8 L80.0 114.2 L90.0 113.5 L100.0 112.8 L110.0 112.1 L120.0 111.4 L130.0 110.9 L140.0 110.5 L150.0 110.3 L160.0 110.2 L170.0 110.4 L180.0 110.7 L190.0 111.2 L200.0 111.8 L210.0 112.5 L220.0 113.2 L230.0 113.9 L240.0 114.6 L250.0 115.1 L260.0 115.5 L270.0 115.7 L280.0 115.8 L290.0 115.6 L300.0 115.3 L310.0 114.8 L320.0 114.2 L330.0 113.5 L340.0 112.8 L350.0 112.1 L360.0 111.4 L370.0 110.9 L380.0 110.5 L390.0 110.3 L400.0 110.2 L410.0 110.4 L420.0 110.7 L430.0 111.2 L440.0 111.8 L450.0 112.5 L460.0 113.2 L470.0 113.9 L480.0 114.6" fill="none" stroke="#3E2C20" stroke-width="1.2" stroke-opacity="0.40" stroke-linecap="round"/><path d="M0.0 129.9 L10.0 130.5 L20.0 130.9 L30.0 130.9 L40.0 130.6 L50.0 130.0 L60.0 129.1 L70.0 128.0 L80.0 126.7 L90.0 125.4 L100.0 124.2 L110.0 123.1 L120.0 122.1 L130.0 121.5 L140.0 121.1 L150.0 121.1 L160.0 121.4 L170.0 122.0 L180.0 122.9 L190.0 124.0 L200.0 125.3 L210.0 126.6 L220.0 127.8 L230.0 128.9 L240.0 129.9 L250.0 130.5 L260.0 130.9 L270.0 130.9 L280.0 130.6 L290.0 130.0 L300.0 129.1 L310.0 128.0 L320.0 126.7 L330.0 125.4 L340.0 124.2 L350.0 123.1 L360.0 122.1 L370.0 121.5 L380.0 121.1 L390.0 121.1 L400.0 121.4 L410.0 122.0 L420.0 122.9 L430.0 124.0 L440.0 125.3 L450.0 126.6 L460.0 127.8 L470.0 128.9 L480.0 129.9" fill="none" stroke="#0E0805" stroke-width="1.0" stroke-opacity="0.40" stroke-linecap="round"/><path d="M0.0 143.2 L10.0 143.5 L20.0 143.5 L30.0 143.1 L40.0 142.5 L50.0 141.7 L60.0 140.6 L70.0 139.5 L80.0 138.3 L90.0 137.2 L100.0 136.2 L110.0 135.4 L120.0 134.8 L130.0 134.5 L140.0 134.5 L150.0 134.9 L160.0 135.5 L170.0 136.3 L180.0 137.4 L190.0 138.5 L200.0 139.7 L210.0 140.8 L220.0 141.8 L230.0 142.6 L240.0 143.2 L250.0 143.5 L260.0 143.5 L270.0 143.1 L280.0 142.5 L290.0 141.7 L300.0 140.6 L310.0 139.5 L320.0 138.3 L330.0 137.2 L340.0 136.2 L350.0 135.4 L360.0 134.8 L370.0 134.5 L380.0 134.5 L390.0 134.9 L400.0 135.5 L410.0 136.3 L420.0 137.4 L430.0 138.5 L440.0 139.7 L450.0 140.8 L460.0 141.8 L470.0 142.6 L480.0 143.2" fill="none" stroke="#0E0805" stroke-width="1.5" stroke-opacity="0.55" stroke-linecap="round"/><rect x="0" y="146.5" width="480" height="2" fill="#150B05" fill-opacity="0.85"/><path d="M0 149 L480 149" fill="none" stroke="#FFF6E8" stroke-width="1.0" stroke-opacity="0.08" stroke-linecap="round"/><linearGradient id="p3_2" x1="0" y1="0" x2="0" y2="1"><stop offset="0" stop-color="#5C4430"/><stop offset="0.5" stop-color="#4E3826"/><stop offset="1" stop-color="#150B05"/></linearGradient><rect x="0" y="148" width="480" height="74" fill="url(#p3_2)"/><path d="M0.0 152.3 L10.0 152.5 L20.0 152.6 L30.0 152.6 L40.0 152.5 L50.0 152.2 L60.0 151.9 L70.0 151.6 L80.0 151.1 L90.0 150.7 L100.0 150.3 L110.0 150.0 L120.0 149.7 L130.0 149.5 L140.0 149.4 L150.0 149.4 L160.0 149.5 L170.0 149.8 L180.0 150.1 L190.0 150.4 L200.0 150.9 L210.0 151.3 L220.0 151.7 L230.0 152.0 L240.0 152.3 L250.0 152.5 L260.0 152.6 L270.0 152.6 L280.0 152.5 L290.0 152.2 L300.0 151.9 L310.0 151.6 L320.0 151.1 L330.0 150.7 L340.0 150.3 L350.0 150.0 L360.0 149.7 L370.0 149.5 L380.0 149.4 L390.0 149.4 L400.0 149.5 L410.0 149.8 L420.0 150.1 L430.0 150.4 L440.0 150.9 L450.0 151.3 L460.0 151.7 L470.0 152.0 L480.0 152.3" fill="none" stroke="#FFF6E8" stroke-width="1.4" stroke-opacity="0.16" stroke-linecap="round"/><path d="M0.0 218.2 L10.0 218.6 L20.0 219.0 L30.0 219.4 L40.0 219.8 L50.0 220.1 L60.0 220.4 L70.0 220.5 L80.0 220.6 L90.0 220.6 L100.0 220.4 L110.0 220.1 L120.0 219.8 L130.0 219.4 L140.0 219.0 L150.0 218.6 L160.0 218.2 L170.0 217.9 L180.0 217.6 L190.0 217.5 L200.0 217.4 L210.0 217.4 L220.0 217.6 L230.0 217.9 L240.0 218.2 L250.0 218.6 L260.0 219.0 L270.0 219.4 L280.0 219.8 L290.0 220.1 L300.0 220.4 L310.0 220.5 L320.0 220.6 L330.0 220.6 L340.0 220.4 L350.0 220.1 L360.0 219.8 L370.0 219.4 L380.0 219.0 L390.0 218.6 L400.0 218.2 L410.0 217.9 L420.0 217.6 L430.0 217.5 L440.0 217.4 L450.0 217.4 L460.0 217.6 L470.0 217.9 L480.0 218.2" fill="none" stroke="#0E0805" stroke-width="2.0" stroke-opacity="0.50" stroke-linecap="round"/><path d="M0.0 161.0 L10.0 161.6 L20.0 162.1 L30.0 162.5 L40.0 162.9 L50.0 163.1 L60.0 163.1 L70.0 163.1 L80.0 162.9 L90.0 162.5 L100.0 162.1 L110.0 161.6 L120.0 161.0 L130.0 160.4 L140.0 159.9 L150.0 159.5 L160.0 159.1 L170.0 158.9 L180.0 158.9 L190.0 158.9 L200.0 159.1 L210.0 159.5 L220.0 159.9 L230.0 160.4 L240.0 161.0 L250.0 161.6 L260.0 162.1 L270.0 162.5 L280.0 162.9 L290.0 163.1 L300.0 163.1 L310.0 163.1 L320.0 162.9 L330.0 162.5 L340.0 162.1 L350.0 161.6 L360.0 161.0 L370.0 160.4 L380.0 159.9 L390.0 159.5 L400.0 159.1 L410.0 158.9 L420.0 158.9 L430.0 158.9 L440.0 159.1 L450.0 159.5 L460.0 159.9 L470.0 160.4 L480.0 161.0" fill="none" stroke="#0E0805" stroke-width="1.6" stroke-opacity="0.50" stroke-linecap="round"/><path d="M0.0 175.4 L10.0 176.6 L20.0 177.5 L30.0 178.2 L40.0 178.7 L50.0 178.8 L60.0 178.6 L70.0 178.1 L80.0 177.3 L90.0 176.2 L100.0 175.1 L110.0 173.8 L120.0 172.6 L130.0 171.4 L140.0 170.5 L150.0 169.8 L160.0 169.3 L170.0 169.2 L180.0 169.4 L190.0 169.9 L200.0 170.7 L210.0 171.8 L220.0 172.9 L230.0 174.2 L240.0 175.4 L250.0 176.6 L260.0 177.5 L270.0 178.2 L280.0 178.7 L290.0 178.8 L300.0 178.6 L310.0 178.1 L320.0 177.3 L330.0 176.2 L340.0 175.1 L350.0 173.8 L360.0 172.6 L370.0 171.4 L380.0 170.5 L390.0 169.8 L400.0 169.3 L410.0 169.2 L420.0 169.4 L430.0 169.9 L440.0 170.7 L450.0 171.8 L460.0 172.9 L470.0 174.2 L480.0 175.4" fill="none" stroke="#7A5836" stroke-width="1.2" stroke-opacity="0.40" stroke-linecap="round"/><path d="M0.0 189.0 L10.0 189.7 L20.0 190.3 L30.0 190.5 L40.0 190.6 L50.0 190.4 L60.0 190.0 L70.0 189.3 L80.0 188.6 L90.0 187.7 L100.0 186.7 L110.0 185.8 L120.0 185.0 L130.0 184.3 L140.0 183.7 L150.0 183.5 L160.0 183.4 L170.0 183.6 L180.0 184.0 L190.0 184.7 L200.0 185.4 L210.0 186.3 L220.0 187.3 L230.0 188.2 L240.0 189.0 L250.0 189.7 L260.0 190.3 L270.0 190.5 L280.0 190.6 L290.0 190.4 L300.0 190.0 L310.0 189.3 L320.0 188.6 L330.0 187.7 L340.0 186.7 L350.0 185.8 L360.0 185.0 L370.0 184.3 L380.0 183.7 L390.0 183.5 L400.0 183.4 L410.0 183.6 L420.0 184.0 L430.0 184.7 L440.0 185.4 L450.0 186.3 L460.0 187.3 L470.0 188.2 L480.0 189.0" fill="none" stroke="#0E0805" stroke-width="1.1" stroke-opacity="0.35" stroke-linecap="round"/><path d="M0.0 203.5 L10.0 204.1 L20.0 204.4 L30.0 204.4 L40.0 204.1 L50.0 203.6 L60.0 202.8 L70.0 201.8 L80.0 200.6 L90.0 199.5 L100.0 198.4 L110.0 197.4 L120.0 196.5 L130.0 195.9 L140.0 195.6 L150.0 195.6 L160.0 195.9 L170.0 196.4 L180.0 197.2 L190.0 198.2 L200.0 199.4 L210.0 200.5 L220.0 201.6 L230.0 202.6 L240.0 203.5 L250.0 204.1 L260.0 204.4 L270.0 204.4 L280.0 204.1 L290.0 203.6 L300.0 202.8 L310.0 201.8 L320.0 200.6 L330.0 199.5 L340.0 198.4 L350.0 197.4 L360.0 196.5 L370.0 195.9 L380.0 195.6 L390.0 195.6 L400.0 195.9 L410.0 196.4 L420.0 197.2 L430.0 198.2 L440.0 199.4 L450.0 200.5 L460.0 201.6 L470.0 202.6 L480.0 203.5" fill="none" stroke="#0E0805" stroke-width="1.1" stroke-opacity="0.35" stroke-linecap="round"/><path d="M0.0 216.1 L10.0 216.3 L20.0 216.3 L30.0 216.1 L40.0 215.6 L50.0 215.0 L60.0 214.2 L70.0 213.4 L80.0 212.5 L90.0 211.7 L100.0 210.9 L110.0 210.3 L120.0 209.9 L130.0 209.7 L140.0 209.7 L150.0 209.9 L160.0 210.4 L170.0 211.0 L180.0 211.8 L190.0 212.6 L200.0 213.5 L210.0 214.3 L220.0 215.1 L230.0 215.7 L240.0 216.1 L250.0 216.3 L260.0 216.3 L270.0 216.1 L280.0 215.6 L290.0 215.0 L300.0 214.2 L310.0 213.4 L320.0 212.5 L330.0 211.7 L340.0 210.9 L350.0 210.3 L360.0 209.9 L370.0 209.7 L380.0 209.7 L390.0 209.9 L400.0 210.4 L410.0 211.0 L420.0 211.8 L430.0 212.6 L440.0 213.5 L450.0 214.3 L460.0 215.1 L470.0 215.7 L480.0 216.1" fill="none" stroke="#0E0805" stroke-width="1.1" stroke-opacity="0.35" stroke-linecap="round"/><rect x="0" y="220.5" width="480" height="2" fill="#150B05" fill-opacity="0.85"/><path d="M0 223 L480 223" fill="none" stroke="#FFF6E8" stroke-width="1.0" stroke-opacity="0.08" stroke-linecap="round"/><linearGradient id="p3_3" x1="0" y1="0" x2="0" y2="1"><stop offset="0" stop-color="#150B05"/><stop offset="0.5" stop-color="#1C1009"/><stop offset="1" stop-color="#100804"/></linearGradient><rect x="0" y="222" width="480" height="74" fill="url(#p3_3)"/><path d="M0.0 235.0 L10.0 236.4 L20.0 237.6 L30.0 238.7 L40.0 239.6 L50.0 240.1 L60.0 240.3 L70.0 240.1 L80.0 239.6 L90.0 238.7 L100.0 237.6 L110.0 236.4 L120.0 235.0 L130.0 233.6 L140.0 232.4 L150.0 231.3 L160.0 230.4 L170.0 229.9 L180.0 229.7 L190.0 229.9 L200.0 230.4 L210.0 231.3 L220.0 232.4 L230.0 233.6 L240.0 235.0 L250.0 236.4 L260.0 237.6 L270.0 238.7 L280.0 239.6 L290.0 240.1 L300.0 240.3 L310.0 240.1 L320.0 239.6 L330.0 238.7 L340.0 237.6 L350.0 236.4 L360.0 235.0 L370.0 233.6 L380.0 232.4 L390.0 231.3 L400.0 230.4 L410.0 229.9 L420.0 229.7 L430.0 229.9 L440.0 230.4 L450.0 231.3 L460.0 232.4 L470.0 233.6 L480.0 235.0" fill="none" stroke="#3E2C20" stroke-width="1.2" stroke-opacity="0.40" stroke-linecap="round"/><path d="M0.0 249.5 L10.0 250.7 L20.0 251.7 L30.0 252.4 L40.0 252.9 L50.0 253.0 L60.0 252.8 L70.0 252.2 L80.0 251.4 L90.0 250.3 L100.0 249.1 L110.0 247.8 L120.0 246.5 L130.0 245.3 L140.0 244.3 L150.0 243.6 L160.0 243.1 L170.0 243.0 L180.0 243.2 L190.0 243.8 L200.0 244.6 L210.0 245.7 L220.0 246.9 L230.0 248.2 L240.0 249.5 L250.0 250.7 L260.0 251.7 L270.0 252.4 L280.0 252.9 L290.0 253.0 L300.0 252.8 L310.0 252.2 L320.0 251.4 L330.0 250.3 L340.0 249.1 L350.0 247.8 L360.0 246.5 L370.0 245.3 L380.0 244.3 L390.0 243.6 L400.0 243.1 L410.0 243.0 L420.0 243.2 L430.0 243.8 L440.0 244.6 L450.0 245.7 L460.0 246.9 L470.0 248.2 L480.0 249.5" fill="none" stroke="#0E0805" stroke-width="1.5" stroke-opacity="0.55" stroke-linecap="round"/><path d="M0.0 262.2 L10.0 262.6 L20.0 262.9 L30.0 263.1 L40.0 263.1 L50.0 263.0 L60.0 262.8 L70.0 262.4 L80.0 261.9 L90.0 261.4 L100.0 260.8 L110.0 260.3 L120.0 259.8 L130.0 259.4 L140.0 259.1 L150.0 258.9 L160.0 258.9 L170.0 259.0 L180.0 259.2 L190.0 259.6 L200.0 260.1 L210.0 260.6 L220.0 261.2 L230.0 261.7 L240.0 262.2 L250.0 262.6 L260.0 262.9 L270.0 263.1 L280.0 263.1 L290.0 263.0 L300.0 262.8 L310.0 262.4 L320.0 261.9 L330.0 261.4 L340.0 260.8 L350.0 260.3 L360.0 259.8 L370.0 259.4 L380.0 259.1 L390.0 258.9 L400.0 258.9 L410.0 259.0 L420.0 259.2 L430.0 259.6 L440.0 260.1 L450.0 260.6 L460.0 261.2 L470.0 261.7 L480.0 262.2" fill="none" stroke="#0E0805" stroke-width="1.0" stroke-opacity="0.40" stroke-linecap="round"/><path d="M0.0 276.1 L10.0 276.5 L20.0 276.7 L30.0 276.7 L40.0 276.5 L50.0 276.2 L60.0 275.7 L70.0 275.1 L80.0 274.4 L90.0 273.7 L100.0 273.0 L110.0 272.4 L120.0 271.9 L130.0 271.5 L140.0 271.3 L150.0 271.3 L160.0 271.5 L170.0 271.8 L180.0 272.3 L190.0 272.9 L200.0 273.6 L210.0 274.3 L220.0 275.0 L230.0 275.6 L240.0 276.1 L250.0 276.5 L260.0 276.7 L270.0 276.7 L280.0 276.5 L290.0 276.2 L300.0 275.7 L310.0 275.1 L320.0 274.4 L330.0 273.7 L340.0 273.0 L350.0 272.4 L360.0 271.9 L370.0 271.5 L380.0 271.3 L390.0 271.3 L400.0 271.5 L410.0 271.8 L420.0 272.3 L430.0 272.9 L440.0 273.6 L450.0 274.3 L460.0 275.0 L470.0 275.6 L480.0 276.1" fill="none" stroke="#0E0805" stroke-width="1.0" stroke-opacity="0.40" stroke-linecap="round"/><path d="M0.0 291.3 L10.0 291.6 L20.0 291.6 L30.0 291.3 L40.0 290.6 L50.0 289.7 L60.0 288.7 L70.0 287.5 L80.0 286.3 L90.0 285.1 L100.0 284.1 L110.0 283.3 L120.0 282.7 L130.0 282.4 L140.0 282.4 L150.0 282.7 L160.0 283.4 L170.0 284.3 L180.0 285.3 L190.0 286.5 L200.0 287.7 L210.0 288.9 L220.0 289.9 L230.0 290.7 L240.0 291.3 L250.0 291.6 L260.0 291.6 L270.0 291.3 L280.0 290.6 L290.0 289.7 L300.0 288.7 L310.0 287.5 L320.0 286.3 L330.0 285.1 L340.0 284.1 L350.0 283.3 L360.0 282.7 L370.0 282.4 L380.0 282.4 L390.0 282.7 L400.0 283.4 L410.0 284.3 L420.0 285.3 L430.0 286.5 L440.0 287.7 L450.0 288.9 L460.0 289.9 L470.0 290.7 L480.0 291.3" fill="none" stroke="#B85A22" stroke-width="1.0" stroke-opacity="0.18" stroke-linecap="round"/><rect x="0" y="294.5" width="480" height="2" fill="#150B05" fill-opacity="0.85"/><path d="M0 297 L480 297" fill="none" stroke="#FFF6E8" stroke-width="1.0" stroke-opacity="0.08" stroke-linecap="round"/><radialGradient id="sun3" cx="0.2" cy="0.05" r="1"><stop offset="0" stop-color="#C98A4E" stop-opacity="0.22"/><stop offset="0.4" stop-color="#C98A4E" stop-opacity="0.05"/><stop offset="1" stop-color="#C98A4E" stop-opacity="0"/></radialGradient><radialGradient id="shd3" cx="0.85" cy="1" r="1"><stop offset="0" stop-color="#000000" stop-opacity="0.55"/><stop offset="0.6" stop-color="#000000" stop-opacity="0.12"/><stop offset="1" stop-color="#000000" stop-opacity="0"/></radialGradient><rect width="480" height="150" fill="url(#sun3)"/><rect width="480" height="150" fill="url(#shd3)"/></svg>