<svg xmlns="http://www.w3.org/2000/svg" width="3600" height="2025" viewBox="0 0 3600 2025" preserveAspectRatio="xMidYMid slice" role="img"><defs><pattern id="t" width="400" height="400" patternUnits="userSpaceOnUse"><g><line x1="20" y1="76" x2="180" y2="76" fill="none" stroke="#9CC9A4" stroke-width="2.4" stroke-linecap="square"/><rect x="30" y="84" width="140" height="54" fill="none" stroke="#9CC9A4" stroke-width="2.4" stroke-linecap="square"/><line x1="30" y1="98" x2="170" y2="98" fill="none" stroke="#9CC9A4" stroke-width="2.4" stroke-linecap="square"/><ellipse cx="72" cy="118" rx="16" ry="11" fill="none" stroke="#9CC9A4" stroke-width="2.4" stroke-linecap="square"/><line x1="124" y1="110" x2="124" y2="128" fill="none" stroke="#9CC9A4" stroke-width="2.4" stroke-linecap="square"/><line x1="46" y1="138" x2="46" y2="170" fill="none" stroke="#9CC9A4" stroke-width="2.4" stroke-linecap="square"/><line x1="154" y1="138" x2="154" y2="170" fill="none" stroke="#9CC9A4" stroke-width="2.4" stroke-linecap="square"/></g><g transform="translate(200,200)"><line x1="20" y1="76" x2="180" y2="76" fill="none" stroke="#9CC9A4" stroke-width="2.4" stroke-linecap="square"/><rect x="30" y="84" width="140" height="54" fill="none" stroke="#9CC9A4" stroke-width="2.4" stroke-linecap="square"/><line x1="30" y1="98" x2="170" y2="98" fill="none" stroke="#9CC9A4" stroke-width="2.4" stroke-linecap="square"/><ellipse cx="72" cy="118" rx="16" ry="11" fill="none" stroke="#9CC9A4" stroke-width="2.4" stroke-linecap="square"/><line x1="124" y1="110" x2="124" y2="128" fill="none" stroke="#9CC9A4" stroke-width="2.4" stroke-linecap="square"/><line x1="46" y1="138" x2="46" y2="170" fill="none" stroke="#9CC9A4" stroke-width="2.4" stroke-linecap="square"/><line x1="154" y1="138" x2="154" y2="170" fill="none" stroke="#9CC9A4" stroke-width="2.4" stroke-linecap="square"/></g><g transform="translate(200,0)"><rect x="30" y="28" width="140" height="46" fill="none" stroke="#9CC9A4" stroke-width="2.4" stroke-linecap="square"/><line x1="100" y1="28" x2="100" y2="74" fill="none" stroke="#9CC9A4" stroke-width="2.4" stroke-linecap="square"/><line x1="22" y1="100" x2="178" y2="100" fill="none" stroke="#9CC9A4" stroke-width="2.4" stroke-linecap="square"/><rect x="30" y="100" width="140" height="68" fill="none" stroke="#9CC9A4" stroke-width="2.4" stroke-linecap="square"/><line x1="76" y1="100" x2="76" y2="168" fill="none" stroke="#9CC9A4" stroke-width="2.4" stroke-linecap="square"/><line x1="124" y1="100" x2="124" y2="168" fill="none" stroke="#9CC9A4" stroke-width="2.4" stroke-linecap="square"/><line x1="52" y1="116" x2="52" y2="130" fill="none" stroke="#9CC9A4" stroke-width="2.4" stroke-linecap="square"/><line x1="100" y1="116" x2="100" y2="130" fill="none" stroke="#9CC9A4" stroke-width="2.4" stroke-linecap="square"/></g><g transform="translate(0,200)"><rect x="30" y="28" width="140" height="46" fill="none" stroke="#9CC9A4" stroke-width="2.4" stroke-linecap="square"/><line x1="100" y1="28" x2="100" y2="74" fill="none" stroke="#9CC9A4" stroke-width="2.4" stroke-linecap="square"/><line x1="22" y1="100" x2="178" y2="100" fill="none" stroke="#9CC9A4" stroke-width="2.4" stroke-linecap="square"/><rect x="30" y="100" width="140" height="68" fill="none" stroke="#9CC9A4" stroke-width="2.4" stroke-linecap="square"/><line x1="76" y1="100" x2="76" y2="168" fill="none" stroke="#9CC9A4" stroke-width="2.4" stroke-linecap="square"/><line x1="124" y1="100" x2="124" y2="168" fill="none" stroke="#9CC9A4" stroke-width="2.4" stroke-linecap="square"/><line x1="52" y1="116" x2="52" y2="130" fill="none" stroke="#9CC9A4" stroke-width="2.4" stroke-linecap="square"/><line x1="100" y1="116" x2="100" y2="130" fill="none" stroke="#9CC9A4" stroke-width="2.4" stroke-linecap="square"/></g></pattern><linearGradient id="v" x1="0" y1="0" x2="0" y2="1"><stop offset="0" stop-color="#FFFFFF" stop-opacity="0.05"/><stop offset="1" stop-color="#000000" stop-opacity="0.22"/></linearGradient></defs><rect width="3600" height="2025" fill="#1D2422"/><rect width="3600" height="2025" fill="url(#t)" opacity="0.28"/><rect width="3600" height="2025" fill="url(#v)"/></svg>